<?xml version="1.0" encoding="UTF-8" standalone="no"?>
<!DOCTYPE svg PUBLIC "-//W3C//DTD SVG 1.1//EN" "http://www.w3.org/Graphics/SVG/1.1/DTD/svg11.dtd">
<svg version="1.1" xmlns="http://www.w3.org/2000/svg" xmlns:xlink="http://www.w3.org/1999/xlink" preserveAspectRatio="xMidYMid meet" viewBox="0 0 640 640" width="640" height="640"><defs><path d="M0 0L643.63 0L643.63 643.63L0 643.63L0 0Z" id="a4YWQeLdQ"></path><path d="M510.68 301.05C510.68 406.28 425.24 491.72 320 491.72C214.76 491.72 129.32 406.28 129.32 301.05C129.32 195.81 214.76 110.37 320 110.37C425.24 110.37 510.68 195.81 510.68 301.05Z" id="a83VhwTMd"></path><path d="M375.14 251.08C375.14 279.93 351.72 303.34 322.87 303.34C294.03 303.34 270.61 279.93 270.61 251.08C270.61 222.24 294.03 198.82 322.87 198.82C351.72 198.82 375.14 222.24 375.14 251.08Z" id="b1GqUMX9Hp"></path><path d="M438.89 445.78C438.89 511.39 385.61 564.66 320 564.66C254.39 564.66 201.11 511.39 201.11 445.78C201.11 380.16 254.39 326.89 320 326.89C385.61 326.89 438.89 380.16 438.89 445.78Z" id="c9LFRqDAI"></path><path d="M438.89 452.42C445.99 461.46 446.75 484.22 430.33 506.67C417.7 523.96 397.97 539.27 344.16 559.06C292.61 578.02 273.2 567.48 243.92 531.45C237.16 523.12 230.74 514.87 224.67 506.67C214.98 493.58 206.17 480.66 198.24 467.9" id="d2LELJ4jx9"></path><path d="M203.26 453.42C191.42 468.1 189.75 477.78 198.24 482.45" id="ctg1yzN5J"></path></defs><g><g><g><use xlink:href="#a4YWQeLdQ" opacity="1" fill="#393939" fill-opacity="1"></use></g><g><g><use xlink:href="#a83VhwTMd" opacity="1" fill-opacity="0" stroke="#727272" stroke-width="4" stroke-opacity="1"></use></g></g><g><g><use xlink:href="#b1GqUMX9Hp" opacity="1" fill-opacity="0" stroke="#727272" stroke-width="4" stroke-opacity="1"></use></g></g><g><g><use xlink:href="#c9LFRqDAI" opacity="1" fill-opacity="0" stroke="#727272" stroke-width="4" stroke-opacity="1"></use></g></g><g><g><use xlink:href="#d2LELJ4jx9" opacity="1" fill-opacity="0" stroke="#393939" stroke-width="29" stroke-opacity="1"></use></g></g><g><g><use xlink:href="#ctg1yzN5J" opacity="1" fill-opacity="0" stroke="#393939" stroke-width="27" stroke-opacity="1"></use></g></g></g></g></svg>